<?xml version="1.0" standalone="no"?>
<!DOCTYPE svg PUBLIC "-//W3C//DTD SVG 20010904//EN"
 "http://www.w3.org/TR/2001/REC-SVG-20010904/DTD/svg10.dtd">
<svg version="1.0" xmlns="http://www.w3.org/2000/svg"
 width="1024.000000pt" height="1024.000000pt" viewBox="0 0 1024.000000 1024.000000"
 preserveAspectRatio="xMidYMid meet">
<metadata>
Created by potrace 1.11, written by Peter Selinger 2001-2013
</metadata>
<g transform="translate(0.000000,1024.000000) scale(0.100000,-0.100000)"
fill="#000000" stroke="none">
<path d="M4766 10232 c-3 -5 -20 -8 -38 -7 -18 1 -41 -3 -50 -7 -12 -6 -18 -5
-18 4 0 9 -3 9 -11 1 -6 -6 -18 -9 -27 -6 -11 5 -13 2 -7 -6 6 -10 3 -11 -13
-2 -15 8 -22 8 -25 -2 -4 -9 -6 -9 -6 1 -1 10 -6 10 -21 2 -11 -6 -20 -8 -20
-4 0 3 -6 2 -13 -5 -10 -8 -17 -7 -25 1 -9 9 -12 9 -12 -2 0 -13 -2 -13 -10 0
-5 8 -10 10 -10 4 0 -5 -19 -11 -42 -13 -22 -1 -50 -7 -61 -12 -11 -6 -17 -7
-14 -2 4 5 0 10 -8 10 -8 0 -12 -4 -10 -8 3 -4 -11 -8 -30 -8 -56 -2 -65 -4
-65 -11 0 -3 -15 -6 -32 -5 -18 1 -37 -1 -43 -4 -15 -8 -37 -12 -67 -12 -15 0
-30 -5 -33 -10 -4 -5 -19 -9 -34 -9 -15 0 -33 -6 -40 -12 -11 -11 -12 -10 -6
2 8 13 6 13 -7 2 -9 -7 -28 -11 -43 -8 -20 4 -24 2 -16 -8 8 -9 1 -12 -29 -11
-21 1 -36 -3 -34 -7 3 -4 -6 -9 -20 -9 -14 -1 -29 -2 -33 -4 -5 -1 -21 -5 -38
-10 -16 -4 -35 -12 -42 -17 -7 -6 -13 -4 -16 4 -4 11 -6 10 -6 0 -1 -7 -5 -10
-11 -7 -5 3 -10 2 -10 -2 0 -8 -15 -12 -57 -15 -7 -1 -13 -5 -13 -10 0 -4 -13
-8 -30 -8 -16 0 -30 -5 -30 -11 0 -5 -4 -7 -10 -4 -5 3 -20 -1 -33 -10 -13 -8
-27 -12 -31 -8 -4 4 -11 1 -15 -6 -5 -7 -20 -13 -35 -13 -14 0 -26 -4 -26 -9
0 -5 -9 -9 -20 -9 -11 0 -20 -4 -20 -9 0 -5 -8 -8 -17 -7 -10 2 -21 -1 -24 -5
-3 -5 -17 -10 -31 -11 -15 -1 -24 -6 -22 -10 5 -7 -18 -12 -38 -9 -5 0 -8 -4
-8 -10 0 -6 -7 -8 -16 -5 -8 3 -12 2 -9 -4 5 -9 -23 -15 -47 -11 -5 0 -8 -3
-8 -9 0 -5 -6 -10 -14 -10 -19 0 -67 -26 -60 -33 3 -3 -2 -4 -13 -3 -10 2 -21
-1 -24 -6 -3 -5 -15 -10 -27 -11 -11 0 -18 -5 -16 -9 5 -7 -10 -12 -28 -9 -5
0 -8 -4 -8 -11 0 -6 -3 -8 -6 -5 -4 3 -26 -5 -49 -18 -23 -14 -45 -22 -48 -18
-4 3 -7 2 -7 -4 0 -10 -36 -26 -52 -24 -5 1 -8 -3 -8 -9 0 -5 -6 -10 -14 -10
-7 0 -19 -7 -26 -15 -7 -8 -16 -12 -21 -9 -5 3 -9 0 -9 -5 0 -6 -9 -11 -19
-11 -10 0 -21 -7 -25 -15 -3 -8 -13 -15 -22 -15 -9 0 -30 -10 -47 -22 -41 -29
-97 -60 -97 -53 0 4 -11 -6 -25 -21 -14 -15 -25 -22 -25 -15 0 9 -4 8 -14 -1
-8 -7 -11 -17 -8 -22 3 -5 1 -6 -5 -3 -5 4 -25 -5 -43 -18 -18 -13 -38 -22
-43 -18 -6 3 -7 1 -4 -4 4 -6 -8 -18 -26 -27 -49 -25 -71 -40 -80 -53 -4 -7
-13 -13 -20 -13 -7 0 -26 -12 -42 -27 -16 -16 -31 -27 -32 -25 -2 1 -2 -1 0
-4 1 -3 -15 -13 -36 -23 -20 -9 -35 -20 -32 -23 3 -3 -6 -9 -20 -12 -14 -4
-23 -11 -20 -16 3 -6 0 -10 -8 -10 -19 0 -49 -34 -40 -45 5 -4 3 -5 -4 -1 -7
4 -21 -2 -32 -13 -11 -11 -22 -17 -24 -14 -3 2 -11 -5 -17 -17 -6 -12 -14 -20
-16 -17 -3 3 -20 -10 -38 -29 -18 -19 -36 -34 -40 -34 -11 0 -36 -27 -36 -39
0 -6 -5 -11 -11 -11 -6 0 -16 -6 -24 -12 -7 -7 -32 -28 -54 -47 -22 -18 -38
-37 -35 -42 3 -5 -3 -6 -12 -2 -12 4 -15 3 -10 -5 4 -7 1 -12 -8 -12 -14 0
-20 -11 -17 -32 0 -4 -6 -5 -14 -2 -10 4 -15 0 -15 -11 0 -9 -3 -14 -7 -12 -5
3 -17 -5 -28 -16 -11 -11 -14 -16 -6 -12 9 5 12 4 7 -3 -4 -7 -12 -12 -17 -12
-13 0 -39 -25 -39 -37 0 -12 -37 -42 -44 -36 -3 4 -6 2 -6 -3 0 -5 -27 -39
-60 -74 -33 -35 -60 -68 -60 -73 0 -4 -5 -5 -10 -2 -6 3 -10 1 -10 -5 0 -6
-13 -25 -29 -43 -70 -76 -80 -90 -74 -101 3 -6 3 -8 -1 -4 -9 7 -46 -22 -46
-36 0 -5 -10 -18 -22 -30 -13 -12 -24 -27 -25 -34 -2 -6 -16 -24 -31 -39 -16
-16 -27 -35 -24 -43 3 -8 1 -12 -3 -8 -9 9 -50 -39 -59 -70 -4 -12 -11 -20
-16 -17 -4 3 -14 -8 -22 -25 -7 -16 -17 -30 -22 -30 -4 0 -5 -7 -2 -16 3 -8 2
-12 -4 -9 -6 3 -10 -1 -10 -10 0 -9 -5 -13 -10 -10 -6 3 -10 2 -10 -4 0 -15
-56 -101 -62 -95 -3 3 -8 -2 -12 -11 -4 -11 -2 -14 7 -9 6 4 2 -4 -10 -18 -13
-13 -23 -32 -23 -42 0 -9 -4 -15 -8 -12 -4 2 -14 -4 -21 -16 -10 -16 -10 -19
1 -13 7 5 3 -2 -10 -14 -12 -12 -20 -26 -18 -30 3 -4 -4 -13 -14 -21 -10 -8
-17 -17 -14 -22 3 -4 -1 -11 -10 -14 -8 -3 -12 -12 -9 -20 3 -8 0 -14 -6 -14
-6 0 -11 -9 -11 -20 0 -11 -3 -20 -8 -20 -4 0 -13 -9 -20 -21 -11 -17 -11 -20
0 -14 7 5 3 -2 -10 -14 -12 -12 -20 -26 -18 -30 3 -4 -4 -18 -15 -29 -10 -12
-19 -23 -18 -24 4 -7 -45 -104 -55 -110 -6 -4 -8 -8 -3 -8 4 0 -3 -19 -15 -42
-12 -24 -23 -45 -23 -48 -5 -18 -28 -71 -46 -102 -11 -21 -20 -41 -21 -45 0
-5 -5 -19 -11 -33 -6 -14 -10 -28 -9 -32 1 -5 -3 -8 -8 -8 -6 0 -10 -9 -10
-19 0 -11 -5 -23 -10 -26 -6 -3 -10 -17 -10 -31 0 -17 -4 -23 -12 -18 -7 4 -8
3 -4 -5 4 -6 2 -19 -6 -28 -11 -14 -11 -16 2 -8 9 5 8 0 -4 -13 -11 -12 -15
-22 -11 -22 5 0 4 -5 -3 -12 -7 -7 -12 -22 -12 -35 0 -13 -4 -23 -10 -23 -5 0
-9 -3 -9 -7 1 -5 0 -10 -1 -13 -5 -15 -11 -47 -11 -63 0 -9 -4 -15 -10 -12 -5
4 -9 -4 -9 -17 0 -13 -6 -30 -12 -37 -11 -11 -10 -12 0 -6 12 6 12 3 1 -16 -7
-13 -14 -28 -15 -34 -6 -30 -10 -41 -19 -47 -6 -5 -5 -8 3 -8 10 0 10 -4 -2
-15 -8 -9 -13 -22 -10 -29 3 -8 1 -17 -5 -21 -6 -3 -11 -22 -11 -41 0 -19 -5
-34 -10 -34 -6 0 -10 -6 -9 -12 4 -25 -14 -98 -24 -98 -5 0 -5 -6 2 -14 8 -10
9 -16 1 -21 -5 -3 -10 -21 -10 -40 0 -19 -4 -36 -9 -39 -5 -4 -8 -17 -6 -31 1
-14 -2 -25 -8 -25 -5 0 -7 -9 -4 -20 3 -11 1 -20 -5 -20 -5 0 -6 -4 -3 -10 3
-5 1 -19 -6 -31 -9 -17 -8 -20 3 -14 10 6 11 5 1 -6 -7 -7 -13 -30 -13 -52 0
-21 -4 -36 -9 -33 -10 7 -9 -20 2 -30 4 -4 7 -12 7 -18 0 -6 -5 -4 -10 4 -7
11 -10 3 -10 -30 0 -26 -6 -52 -12 -59 -10 -11 -10 -13 0 -7 6 4 12 3 12 -3 0
-5 -6 -11 -12 -14 -10 -3 -10 -7 1 -20 7 -10 9 -17 4 -17 -5 0 -10 -19 -11
-42 -1 -23 -4 -44 -7 -46 -3 -3 1 -12 8 -20 8 -11 8 -14 0 -9 -6 4 -14 3 -18
-3 -3 -5 -2 -10 4 -10 6 0 7 -11 2 -27 -4 -16 -6 -40 -5 -56 2 -19 -1 -25 -9
-20 -9 5 -9 3 0 -8 10 -12 10 -18 0 -29 -10 -10 -9 -11 3 -5 12 7 13 6 3 -7
-7 -8 -10 -17 -7 -21 9 -8 12 -57 4 -52 -4 3 -8 -117 -8 -265 0 -156 4 -268 9
-264 5 3 9 0 9 -5 0 -6 -4 -11 -10 -11 -5 0 -10 -5 -10 -11 0 -5 4 -8 9 -5 8
5 8 -15 1 -34 -1 -3 -1 -9 0 -15 1 -5 4 -33 5 -61 2 -28 6 -61 10 -73 4 -13 2
-21 -6 -21 -8 0 -8 -4 -1 -12 6 -7 12 -41 14 -75 3 -35 8 -66 11 -70 4 -3 1
-13 -6 -21 -9 -13 -9 -14 1 -8 9 5 12 -3 12 -33 0 -22 5 -43 10 -46 8 -5 7
-12 -2 -23 -7 -9 -8 -13 -2 -9 7 4 11 -10 13 -40 1 -26 7 -51 14 -55 9 -6 8
-8 -3 -8 -13 0 -13 -1 0 -10 8 -5 11 -10 7 -10 -4 0 -3 -9 3 -20 8 -15 8 -20
-1 -20 -8 0 -8 -4 -2 -13 9 -11 12 -30 16 -79 1 -10 5 -18 9 -18 4 0 8 -16 8
-35 0 -19 3 -35 8 -35 6 0 11 -28 15 -82 1 -10 4 -18 8 -18 4 0 6 -8 5 -17 -2
-10 1 -20 5 -23 5 -3 9 -20 11 -38 1 -18 6 -32 10 -32 4 0 7 -3 7 -7 -5 -30 2
-63 13 -57 7 4 8 3 4 -5 -4 -6 -1 -25 8 -41 8 -17 10 -27 4 -24 -6 4 -5 -2 1
-15 7 -12 9 -27 5 -33 -4 -7 -3 -8 4 -4 8 5 12 0 12 -13 0 -11 5 -23 10 -26 6
-4 8 -15 5 -26 -4 -11 -2 -19 5 -19 6 0 8 -4 5 -10 -3 -5 -2 -10 3 -10 6 0 8
-9 5 -20 -3 -11 0 -20 6 -20 6 0 11 -11 11 -24 0 -14 4 -28 10 -31 5 -3 10
-15 10 -26 0 -10 5 -19 11 -19 6 0 9 -7 6 -15 -4 -8 -2 -17 3 -20 6 -4 10 -15
10 -26 0 -10 5 -19 10 -19 6 0 10 -11 10 -24 0 -14 5 -28 10 -31 6 -4 8 -11 5
-16 -4 -5 -1 -9 6 -9 7 0 9 -3 6 -7 -4 -3 0 -17 8 -29 8 -13 16 -35 17 -48 1
-14 7 -24 13 -23 5 1 9 -6 7 -15 -2 -10 2 -18 8 -18 5 0 10 -9 10 -19 0 -11 7
-27 16 -35 8 -9 12 -16 9 -16 -4 0 2 -16 14 -36 12 -19 21 -42 21 -50 0 -8 5
-14 10 -14 6 0 10 -12 10 -26 0 -14 4 -23 10 -19 6 3 10 -3 10 -15 0 -11 6
-23 13 -26 7 -2 13 -14 14 -25 1 -12 9 -29 18 -39 9 -10 17 -27 18 -38 0 -11
5 -18 9 -16 4 3 8 -2 8 -10 0 -9 5 -16 10 -16 6 0 10 -8 10 -17 0 -9 6 -24 14
-32 8 -9 16 -23 18 -31 2 -8 11 -22 20 -31 10 -9 15 -19 11 -23 -3 -3 -1 -6 5
-6 6 0 16 -16 23 -35 7 -19 17 -35 21 -35 4 0 8 -7 8 -15 0 -8 5 -15 10 -15 6
0 10 -7 10 -15 0 -8 4 -15 10 -15 5 0 12 -11 16 -25 3 -14 14 -31 24 -38 9 -6
17 -14 17 -17 -2 -10 37 -70 45 -70 4 0 8 -7 8 -16 0 -9 5 -12 12 -8 7 5 8 3
3 -5 -4 -8 5 -26 26 -47 18 -19 30 -34 26 -34 -4 0 6 -14 23 -31 16 -18 30
-38 30 -44 0 -7 7 -15 15 -19 8 -3 15 -12 15 -21 0 -8 7 -15 15 -15 8 0 14 -6
13 -12 -2 -7 3 -12 10 -10 8 1 11 -2 7 -7 -3 -6 10 -26 28 -45 19 -19 32 -38
29 -41 -3 -3 0 -5 6 -5 6 0 14 -9 17 -20 4 -11 11 -18 16 -15 5 4 9 -1 9 -9 0
-9 5 -16 10 -16 6 0 10 -7 10 -16 0 -8 5 -12 10 -9 6 3 10 2 10 -4 0 -6 18
-29 40 -51 22 -22 40 -45 40 -51 0 -6 4 -7 10 -4 5 3 10 -1 10 -9 0 -9 7 -16
15 -16 8 0 14 -4 13 -9 -2 -5 15 -26 37 -47 22 -20 39 -40 38 -43 0 -3 5 -12
13 -19 8 -7 14 -10 14 -6 0 4 9 -5 21 -20 11 -14 25 -24 30 -20 5 3 9 2 8 -3
-3 -18 1 -36 7 -30 4 3 20 -9 37 -28 17 -19 36 -35 43 -35 7 0 15 -9 19 -19 3
-11 15 -23 26 -26 10 -4 17 -11 14 -16 -4 -5 -1 -9 4 -9 6 0 27 -16 47 -35 19
-19 40 -35 45 -35 6 0 7 -5 3 -12 -5 -8 -2 -9 9 -5 13 5 17 1 18 -16 0 -12 3
-16 6 -9 3 9 15 1 35 -23 17 -19 35 -35 41 -35 5 0 18 -10 28 -22 11 -11 19
-17 19 -13 0 4 8 -2 19 -13 10 -12 23 -22 29 -22 6 0 16 -9 22 -21 7 -11 14
-18 17 -15 3 3 17 -6 30 -20 12 -14 23 -22 23 -19 0 3 12 -6 27 -20 16 -14 36
-28 45 -31 10 -3 18 -10 18 -15 0 -6 5 -7 10 -4 6 3 10 1 10 -5 0 -6 8 -14 18
-17 9 -4 22 -11 27 -15 6 -4 24 -19 41 -33 18 -14 37 -25 42 -25 6 0 16 -8 21
-18 7 -12 10 -13 11 -3 0 10 6 7 19 -7 10 -12 23 -22 29 -22 6 0 12 -4 14 -9
2 -5 10 -11 18 -13 8 -2 17 -5 20 -8 13 -13 66 -44 73 -42 4 1 7 -3 7 -10 0
-6 3 -9 6 -5 3 3 15 -3 27 -14 11 -10 27 -19 34 -19 7 0 13 -4 13 -10 0 -5 9
-10 20 -10 11 0 20 -4 20 -9 0 -5 11 -12 25 -15 14 -4 25 -11 25 -16 0 -6 8
-10 18 -10 10 0 23 -5 30 -12 7 -7 12 -8 12 -3 0 4 8 -1 18 -11 9 -10 26 -21
37 -22 11 -2 22 -7 25 -12 5 -8 40 -20 54 -19 5 0 13 -6 18 -15 5 -9 13 -14
17 -11 5 2 14 -2 21 -10 7 -8 16 -12 21 -9 5 3 16 -2 25 -10 14 -14 35 -21 57
-17 4 0 7 -3 7 -9 0 -5 8 -10 18 -10 9 0 26 -7 36 -15 10 -8 23 -12 27 -9 5 3
9 0 9 -5 0 -6 4 -11 9 -11 5 0 20 -4 33 -9 13 -5 28 -10 33 -12 6 -1 21 -8 34
-15 14 -7 28 -11 33 -8 4 3 8 0 8 -5 0 -6 12 -11 26 -11 14 0 23 -4 19 -10 -4
-6 6 -10 24 -10 16 0 32 -6 34 -12 4 -9 6 -9 6 1 1 12 4 11 14 -2 6 -9 26 -18
44 -20 17 -2 39 -9 47 -17 9 -7 16 -10 16 -6 0 3 16 0 35 -8 19 -8 35 -12 35
-9 0 3 6 1 13 -4 6 -6 20 -9 30 -8 9 2 15 -1 11 -6 -3 -5 9 -9 26 -9 17 0 29
-3 27 -7 -3 -5 9 -9 25 -10 17 -1 37 -8 46 -15 13 -11 14 -11 7 2 -8 13 -6 13
8 2 9 -8 21 -11 27 -7 5 3 10 2 10 -2 0 -5 8 -10 18 -11 34 -4 52 -8 58 -15 4
-4 22 -7 41 -7 18 0 33 -4 33 -8 0 -7 35 -13 93 -15 9 -1 17 -4 17 -8 0 -4 11
-6 25 -4 14 1 28 -2 31 -6 3 -5 18 -9 35 -9 16 0 29 -5 29 -11 0 -8 5 -8 15 1
8 7 15 8 15 4 0 -5 23 -10 52 -12 28 -1 55 -8 60 -15 6 -9 10 -9 18 3 6 9 10
10 10 3 0 -6 8 -12 18 -11 9 0 27 -3 40 -5 13 -4 22 -1 22 6 0 8 3 8 9 -1 4
-7 28 -14 52 -15 24 -1 50 -6 57 -10 7 -5 12 -3 12 4 0 8 5 7 17 -2 15 -12 16
-12 8 1 -7 13 -6 13 7 2 13 -10 17 -10 21 0 4 11 6 11 6 0 1 -11 98 -13 511
-11 281 1 510 5 510 8 0 4 20 8 45 8 25 1 46 2 48 3 3 3 69 11 99 12 18 0 25
4 21 12 -4 6 1 5 10 -3 9 -7 17 -9 17 -4 0 5 19 10 42 11 23 1 46 6 52 12 6 6
16 5 29 -1 14 -8 18 -8 13 0 -7 10 27 16 63 12 7 -2 11 2 8 6 -3 5 12 9 33 8
21 -1 37 2 35 5 -3 4 10 8 28 9 54 3 57 4 57 13 0 4 16 8 36 8 25 0 33 3 28
12 -5 8 0 7 11 -2 10 -8 16 -10 12 -4 -4 7 5 11 26 12 17 0 33 5 34 9 2 5 17
8 33 7 17 -1 30 2 30 7 0 5 10 9 23 9 13 0 29 6 36 13 11 10 12 9 6 -3 -7 -12
-6 -13 6 -4 16 13 66 28 91 27 10 0 15 4 12 8 -5 9 9 13 34 10 6 -1 12 3 12 9
0 5 14 10 31 10 16 0 28 4 25 8 -2 4 8 7 22 6 15 0 33 5 40 13 8 7 18 11 23 8
5 -4 9 -2 9 3 0 5 6 9 13 10 22 2 42 8 63 20 12 6 24 8 28 5 3 -3 6 -1 6 6 0
7 4 10 9 7 4 -3 16 1 27 8 10 8 24 12 31 9 7 -3 13 0 13 6 0 6 12 11 28 11 22
0 24 2 12 11 -12 8 -9 10 13 6 15 -2 27 0 27 4 0 5 9 9 20 9 11 0 20 4 20 8 0
5 17 14 38 20 55 17 112 48 104 57 -4 5 -1 5 5 1 7 -4 33 4 58 18 25 14 45 22
45 18 0 -4 4 -2 8 4 7 10 80 48 95 49 5 0 14 8 21 18 7 9 23 17 35 17 11 0 21
4 21 9 0 5 11 12 25 15 14 4 25 11 25 16 0 6 9 10 21 10 11 0 17 5 14 10 -3 6
3 10 14 10 12 0 21 4 21 9 0 5 10 11 23 15 12 3 32 15 45 26 12 11 22 18 22
14 0 -3 16 6 35 20 19 15 35 24 35 20 0 -4 12 3 28 17 15 14 40 31 55 39 16 8
39 24 52 36 13 12 26 19 29 17 3 -3 8 2 12 11 3 9 9 14 14 11 4 -2 16 5 28 15
12 11 26 20 31 20 5 0 17 10 25 22 9 12 16 19 16 15 0 -7 14 3 75 56 18 15 38
27 44 27 6 0 11 4 11 9 0 5 9 12 19 16 11 3 23 15 26 26 4 10 10 17 15 14 5
-3 13 3 19 12 6 10 11 14 11 10 0 -4 11 2 24 15 13 13 42 39 65 58 24 19 54
47 68 62 14 15 29 25 34 23 4 -3 11 0 15 6 5 8 3 9 -7 4 -8 -4 -5 1 6 12 11
11 22 19 24 17 6 -5 206 201 203 210 -2 4 4 6 13 2 9 -3 13 -2 10 4 -3 5 3 15
15 22 11 7 20 19 20 26 0 7 5 10 10 7 6 -3 10 0 10 7 0 7 9 19 20 26 12 7 18
18 14 25 -4 7 -4 9 1 5 8 -7 65 50 65 65 0 5 4 6 9 2 5 -3 12 4 16 15 3 11 18
29 32 40 14 11 22 20 18 20 -5 0 2 9 15 20 13 11 19 20 14 20 -5 0 -1 5 9 11
9 6 15 14 12 20 -4 5 1 9 9 9 9 0 16 7 16 15 0 8 7 15 16 15 8 0 13 4 10 8 -3
5 8 23 24 40 16 18 27 32 25 32 -5 0 19 30 42 55 7 7 9 15 6 19 -4 3 -1 6 5 6
7 0 12 7 12 16 0 8 4 13 9 10 5 -3 18 13 30 37 12 23 21 38 21 32 0 -5 8 5 16
22 9 18 21 30 27 26 6 -4 8 0 4 10 -3 9 0 18 9 21 9 3 12 10 9 16 -3 5 -2 10
3 10 5 0 15 13 22 30 7 16 16 30 21 30 4 0 16 17 26 37 9 21 22 41 27 45 6 4
12 12 12 18 1 5 2 15 3 21 0 5 6 7 11 4 6 -3 10 3 10 14 0 12 5 21 11 21 5 0
7 5 4 10 -3 6 -1 10 4 10 6 0 11 7 11 15 0 8 5 15 10 15 6 0 10 9 10 20 0 11
4 20 9 20 10 0 27 39 23 53 -1 4 2 7 8 7 5 0 10 7 10 16 0 8 5 12 10 9 6 -3
10 2 10 12 0 11 5 24 12 31 7 7 9 12 4 12 -4 0 0 7 8 16 9 8 14 20 11 25 -4 5
-1 9 4 9 6 0 11 7 11 15 0 8 5 15 11 15 5 0 8 4 4 9 -3 6 5 20 17 32 13 12 16
18 8 14 -11 -6 -10 -3 3 12 9 11 14 23 10 27 -4 4 -3 10 2 14 21 15 44 71 32
76 -7 2 -4 5 6 5 10 1 16 5 12 10 -3 5 -1 12 5 16 5 3 10 15 10 26 0 10 5 19
10 19 6 0 9 3 9 8 -1 4 0 10 1 15 4 12 7 26 9 38 0 5 5 8 10 4 6 -3 8 3 6 14
-2 11 3 22 11 25 8 3 14 11 13 18 -3 28 1 49 10 44 5 -3 8 7 7 24 -1 16 0 27
2 25 7 -7 32 45 32 66 0 11 5 19 12 19 6 0 9 3 6 6 -7 6 30 124 43 138 5 6 9
22 9 36 0 14 8 36 17 49 12 18 13 22 2 16 -11 -7 -12 -6 -2 6 7 9 14 25 16 37
2 12 6 25 10 28 4 4 7 20 7 36 0 15 4 28 9 28 6 0 8 9 6 20 -2 11 1 20 7 20 7
0 7 5 -1 14 -9 10 -9 15 -1 18 11 3 13 12 26 91 3 20 10 37 15 37 5 0 9 5 9
11 0 5 -6 7 -12 3 -10 -6 -10 -4 -2 7 12 15 28 80 28 117 0 12 3 22 6 22 5 0
11 33 12 70 1 8 5 21 11 28 6 8 5 12 -4 12 -10 0 -11 2 -2 8 7 4 14 33 16 64
3 31 7 60 9 64 3 5 5 21 4 36 -1 15 4 30 12 33 10 3 10 10 2 25 -6 11 -7 20
-3 20 4 0 8 27 8 59 0 33 3 57 7 55 4 -3 7 230 7 516 0 287 -3 519 -8 516 -4
-3 -8 1 -8 9 0 8 3 12 7 10 4 -2 7 2 7 10 0 8 -4 12 -8 9 -5 -3 -7 12 -6 33 1
21 -2 44 -6 51 -5 7 -3 12 5 12 10 0 11 2 0 8 -7 5 -14 32 -15 65 -1 31 -5 57
-9 57 -5 0 -8 22 -8 48 0 26 -5 53 -12 60 -9 9 -9 12 1 12 10 0 11 3 3 13 -6
7 -12 30 -14 50 -1 20 -5 37 -9 37 -3 0 -6 10 -5 23 1 12 -4 32 -12 45 -10 15
-11 22 -3 22 7 0 9 5 4 13 -8 13 -11 24 -20 80 -3 20 -9 37 -12 37 -4 0 -7 10
-8 23 -2 39 -14 81 -25 88 -7 4 -5 9 3 12 10 4 10 6 2 6 -7 1 -13 9 -13 19 0
19 -21 80 -34 101 -6 9 -5 12 1 8 13 -8 -14 72 -30 92 -10 12 -9 13 3 6 12 -6
13 -5 2 6 -6 7 -12 23 -12 36 0 13 -4 23 -10 23 -5 0 -9 3 -9 8 3 14 -14 72
-20 72 -4 0 -8 12 -9 27 -1 15 -7 30 -14 34 -6 4 -8 14 -5 23 4 9 0 19 -9 24
-9 5 -16 13 -16 18 -1 14 -8 37 -19 56 -5 10 -9 27 -9 38 0 13 -4 18 -11 15
-6 -4 -9 -1 -8 6 3 24 -13 79 -22 73 -5 -3 -9 4 -9 15 0 11 -5 23 -10 26 -6 4
-9 14 -8 23 2 11 -3 16 -12 14 -8 -2 -12 0 -8 4 4 4 3 13 -2 19 -6 7 -11 24
-12 38 -1 14 -6 23 -10 21 -4 -3 -8 2 -8 10 0 9 -4 16 -9 16 -5 0 -7 10 -4 23
3 12 2 19 -2 15 -8 -8 -35 35 -35 54 0 5 -9 22 -20 38 -11 15 -17 30 -13 34 3
3 1 6 -5 6 -7 0 -12 9 -12 21 0 11 -4 17 -10 14 -5 -3 -10 3 -10 14 0 12 -5
21 -11 21 -5 0 -8 4 -5 9 4 5 1 11 -4 13 -6 2 -12 13 -13 25 0 12 -6 21 -12
20 -5 -1 -9 4 -8 11 2 6 -2 12 -7 12 -6 0 -10 6 -10 14 0 8 -6 21 -12 28 -7 7
-22 31 -34 53 -12 22 -26 39 -31 38 -6 -1 -9 6 -6 17 3 11 0 20 -6 20 -6 0
-11 6 -11 13 0 7 -9 23 -20 35 -12 12 -18 22 -14 22 4 0 -2 8 -12 18 -10 9
-20 24 -22 32 -2 8 -10 19 -18 23 -8 4 -14 12 -14 18 0 5 -9 19 -20 31 -11 12
-20 27 -20 34 0 6 -7 14 -15 18 -8 3 -15 11 -15 18 0 7 -11 25 -25 40 -14 15
-25 31 -25 36 0 6 -7 13 -16 16 -9 4 -14 9 -11 13 4 3 -5 14 -18 25 -14 11
-25 24 -25 29 0 6 -6 17 -12 24 -30 34 -38 45 -38 55 0 6 -4 8 -10 5 -5 -3
-10 -2 -10 4 0 6 -11 21 -25 35 -14 14 -25 28 -25 31 0 3 -3 5 -6 4 -4 0 -16
16 -28 36 -12 19 -25 33 -29 29 -4 -4 -7 -1 -7 6 0 7 -11 23 -24 35 -14 13
-22 26 -19 29 4 3 -1 6 -9 6 -9 0 -18 9 -21 21 -3 12 -10 18 -16 14 -6 -3 -11
-1 -11 5 0 6 -11 22 -25 36 -14 14 -25 29 -25 35 0 6 -5 7 -10 4 -5 -3 -10 -1
-10 5 0 6 -6 8 -12 4 -7 -4 -10 -4 -6 1 10 11 -11 37 -23 29 -5 -3 -9 -2 -8 3
3 17 -1 36 -7 30 -3 -3 -19 10 -36 29 -16 19 -35 31 -41 27 -6 -4 -8 0 -4 10
4 10 -1 18 -14 22 -10 4 -19 11 -19 16 0 6 -4 7 -10 4 -5 -3 -10 -1 -10 5 0
15 -25 40 -40 40 -6 0 -8 5 -5 10 3 6 2 10 -3 10 -12 0 -54 37 -50 43 2 3 0 9
-4 13 -5 4 -8 2 -8 -5 0 -9 -4 -9 -14 1 -8 7 -12 16 -9 21 4 7 -12 11 -30 8
-5 -1 -6 2 -4 6 2 5 -6 18 -19 31 -13 12 -24 20 -24 17 0 -3 -11 5 -24 19 -13
15 -28 26 -33 26 -6 0 -22 15 -37 33 -15 17 -28 30 -29 27 -1 -3 -15 5 -31 18
-16 12 -25 22 -20 22 5 0 -8 9 -28 20 -38 20 -65 40 -100 73 -10 9 -24 17 -31
17 -7 0 -19 9 -27 19 -7 11 -17 18 -22 15 -4 -3 -8 0 -8 5 0 6 -5 11 -11 11
-7 0 -22 11 -35 26 -13 14 -24 20 -24 13 0 -7 -8 -2 -19 9 -10 12 -25 22 -34
22 -8 0 -17 7 -21 15 -3 8 -12 15 -21 15 -8 0 -15 5 -15 10 0 6 -9 10 -21 10
-11 0 -18 4 -14 9 5 9 -32 27 -47 23 -5 -1 -8 2 -8 8 0 5 -24 22 -52 36 -29
15 -54 30 -56 35 -2 5 -10 9 -18 9 -8 0 -24 9 -35 19 -12 11 -37 22 -57 26
-26 5 -32 9 -21 16 12 7 12 9 -1 10 -8 1 -21 1 -27 0 -7 -1 -13 3 -13 9 0 6
-4 8 -10 5 -5 -3 -10 -3 -10 2 0 9 -48 33 -67 33 -7 0 -13 5 -13 11 0 6 -7 9
-15 5 -9 -3 -15 0 -15 9 0 9 -8 12 -20 10 -11 -2 -18 0 -15 4 2 5 -5 11 -18
15 -26 6 -25 6 -56 22 -14 7 -29 10 -34 7 -6 -3 -7 -1 -3 5 4 7 2 12 -3 12
-16 0 -23 2 -50 16 -14 7 -28 11 -33 8 -4 -3 -8 0 -8 5 0 6 -6 11 -13 11 -7 0
-33 10 -58 22 -49 24 -50 25 -80 27 -13 1 -18 5 -13 13 5 8 2 9 -9 5 -9 -3
-19 -2 -22 3 -4 6 -17 10 -31 10 -14 0 -22 4 -19 10 4 6 -7 10 -24 10 -17 0
-31 4 -31 8 0 4 -9 8 -20 9 -11 1 -34 9 -50 17 -17 8 -28 10 -24 5 3 -5 -11 0
-32 11 -20 12 -45 19 -55 17 -10 -3 -20 2 -23 10 -3 8 -10 12 -16 8 -5 -3 -19
-1 -31 6 -17 9 -20 8 -13 -3 6 -11 5 -11 -8 0 -17 13 -41 21 -95 29 -18 3 -31
8 -29 12 2 3 -12 7 -32 8 -19 1 -38 6 -41 10 -3 4 -15 8 -26 7 -11 0 -26 5
-34 10 -11 8 -13 8 -7 -2 6 -11 4 -11 -10 -3 -28 15 -80 26 -135 30 -11 0 -18
4 -16 9 3 4 -9 6 -26 6 -18 -1 -38 3 -44 9 -9 6 -13 5 -13 -4 0 -10 -3 -10 -8
-3 -4 7 -19 12 -34 13 -59 4 -68 6 -68 13 0 5 -10 4 -21 -3 -15 -8 -19 -8 -15
0 5 7 -8 11 -39 11 -25 0 -44 3 -42 8 3 4 -18 8 -46 8 -71 2 -154 11 -167 19
-5 3 -10 1 -10 -5 0 -6 -5 -8 -12 -3 -7 4 -40 8 -73 9 -33 2 -60 3 -60 4 0 1
-12 3 -28 5 -19 3 -25 0 -20 -8 4 -8 1 -7 -9 1 -13 10 -76 13 -282 11 -146 -1
-266 -6 -266 -11 0 -4 -5 -8 -11 -8 -5 0 -8 4 -5 8 3 5 -1 9 -9 9 -8 0 -15 -4
-15 -9 0 -4 -5 -8 -11 -8 -5 0 -7 5 -4 10 3 6 4 10 1 10 -3 0 -7 -4 -10 -8z"/>
</g>
</svg>
